Coordinates
version=1
nRows=13
nColumns=38
inDegrees=no

Units are S.I. units (second, meters, Newtons, ...)
If the header above contains a line with 'inDegrees', this indicates whether rotational values are in degrees (yes) or radians (no).

endheader
time	pelvis_tilt	pelvis_list	pelvis_rotation	pelvis_tx	pelvis_ty	pelvis_tz	hip_flexion_r	hip_adduction_r	hip_rotation_r	knee_angle_r	ankle_angle_r	subtalar_angle_r	mtp_angle_r	hip_flexion_l	hip_adduction_l	hip_rotation_l	knee_angle_l	ankle_angle_l	subtalar_angle_l	mtp_angle_l	lumbar_extension	lumbar_bending	lumbar_rotation	arm_flex_r	arm_add_r	arm_rot_r	elbow_flex_r	pro_sup_r	wrist_flex_r	wrist_dev_r	arm_flex_l	arm_add_l	arm_rot_l	elbow_flex_l	pro_sup_l	wrist_flex_l	wrist_dev_l
0	0.472387	1.31216	1.24611	1.02902	-0.682094	1.02442	0.402775	0.0860063	-0.171752	0.299733	-0.0893186	0	0	0.386149	-0.121598	0.0917289	1.17659	-0.247471	0	0	0.0814896	0.143009	-0.0203438	-0.132163	-0.340304	0.218354	0.478486	1.305	0	0	-0.194835	-0.11748	-0.427172	0.485799	1.06564	0	0
0.01	0.436803	1.30724	1.27073	1.03019	-0.671231	1.02499	0.397684	0.0850671	-0.147852	0.299487	-0.0844019	0	0	0.414316	-0.117676	0.0772073	1.1902	-0.231762	0	0	0.0911987	0.135209	-0.00903666	-0.129959	-0.341624	0.218604	0.482759	1.30746	0	0	-0.1995	-0.11907	-0.422418	0.4875	1.05629	0	0
0.02	0.412886	1.31037	1.28979	1.0309	-0.659794	1.02635	0.381338	0.0820994	-0.143407	0.29471	-0.0811145	0	0	0.432484	-0.113847	0.0646943	1.19634	-0.216371	0	0	0.0917665	0.126582	-0.00410799	-0.125079	-0.341893	0.220587	0.485576	1.30816	0	0	-0.203694	-0.120938	-0.41968	0.489515	1.04865	0	0
0.03	0.391072	1.31401	1.30947	1.03136	-0.648535	1.02771	0.363914	0.0784699	-0.145694	0.287415	-0.0792675	0	0	0.447342	-0.107458	0.0690667	1.19776	-0.193269	0	0	0.0908304	0.117822	-0.00189751	-0.119548	-0.342345	0.223238	0.48946	1.30666	0	0	-0.208122	-0.122823	-0.416716	0.493135	1.04172	0	0
0.04	0.37075	1.32089	1.32655	1.03187	-0.636976	1.02933	0.341936	0.0751691	-0.147287	0.277189	-0.0783246	0	0	0.459582	-0.106052	0.0508537	1.19279	-0.183082	0	0	0.0861873	0.108453	0.000962239	-0.113919	-0.343073	0.227234	0.494236	1.30304	0	0	-0.213179	-0.124779	-0.413504	0.49789	1.0357	0	0
0.05	0.352691	1.32738	1.34089	1.03236	-0.625392	1.03089	0.319831	0.0726131	-0.150417	0.265135	-0.0782592	0	0	0.471215	-0.107281	0.0281334	1.18366	-0.172689	0	0	0.0815134	0.0998674	0.00391715	-0.108143	-0.344707	0.234759	0.499885	1.29874	0	0	-0.218908	-0.126602	-0.409137	0.503722	1.03055	0	0
0.06	0.332841	1.33199	1.35745	1.0327	-0.61389	1.03223	0.300752	0.0694694	-0.157573	0.256415	-0.0783704	0	0	0.484647	-0.110216	-3.99909e-05	1.17096	-0.163952	0	0	0.079422	0.0914144	0.00610964	-0.102855	-0.347339	0.245641	0.506566	1.29225	0	0	-0.225287	-0.12851	-0.402588	0.509909	1.02572	0	0
0.07	0.316836	1.33939	1.37086	1.03283	-0.602327	1.03374	0.277948	0.0662592	-0.168248	0.247944	-0.0794525	0	0	0.494184	-0.115451	-0.0335334	1.15479	-0.153253	0	0	0.0694818	0.0834258	0.0149066	-0.109792	-0.33513	0.175818	0.521051	1.37322	0	0	-0.221897	-0.122109	-0.430787	0.514358	1.06214	0	0
0.08	0.317891	1.35358	1.36234	1.03338	-0.589951	1.03557	0.244966	0.0674431	-0.177926	0.235401	-0.0813804	0	0	0.494789	-0.150424	-0.119276	1.1407	-0.152491	0	0	0.056619	0.0791177	0.025995	-0.112644	-0.337898	0.168946	0.538148	1.37501	0	0	-0.224515	-0.121955	-0.427784	0.520486	1.0635	0	0
0.09	0.300821	1.36086	1.37203	1.03378	-0.578663	1.03692	0.222312	0.0649319	-0.178867	0.226295	-0.0831519	0	0	0.50018	-0.158974	-0.158973	1.11696	-0.143988	0	0	0.050127	0.0722774	0.036937	-0.113874	-0.340649	0.163611	0.554098	1.37351	0	0	-0.224743	-0.121822	-0.424484	0.524706	1.06457	0	0
0.1	0.280099	1.36529	1.38622	1.03409	-0.567515	1.03795	0.203323	0.0619218	-0.181298	0.219055	-0.0846278	0	0	0.507607	-0.163848	-0.190982	1.08848	-0.138464	0	0	0.0472904	0.0652557	0.0458876	-0.11428	-0.343435	0.161215	0.568775	1.37019	0	0	-0.225493	-0.122235	-0.419198	0.528591	1.0667	0	0
0.11	0.255451	1.36599	1.40607	1.03418	-0.556398	1.03854	0.188673	0.0582977	-0.185703	0.213	-0.0848064	0	0	0.518217	-0.165963	-0.218216	1.05542	-0.135599	0	0	0.0517297	0.057958	0.0482346	-0.109244	-0.348907	0.179563	0.57735	1.35162	0	0	-0.229542	-0.120658	-0.422779	0.532548	1.07155	0	0
0.12	0.231262	1.36862	1.42543	1.03419	-0.545351	1.03918	0.171486	0.0544679	-0.188325	0.204666	-0.0862734	0	0	0.524924	-0.16633	-0.244055	1.01817	-0.132964	0	0	0.0503466	0.0508986	0.0549356	-0.11077	-0.34994	0.168637	0.593798	1.35797	0	0	-0.228877	-0.119454	-0.423232	0.535954	1.07687	0	0
